<svg width="18" height="18" viewBox="0 0 18 18" fill="none" xmlns="http://www.w3.org/2000/svg">
<g id="bi:check-lg">
<path id="Vector" d="M14.328 4.46611C14.4048 4.38778 14.4964 4.32554 14.5975 4.28306C14.6986 4.24057 14.8072 4.21869 14.9169 4.21869C15.0266 4.21869 15.1352 4.24057 15.2363 4.28306C15.3374 4.32554 15.4291 4.38778 15.5059 4.46611C15.8276 4.79124 15.8321 5.31661 15.5171 5.64736L8.86498 13.5111C8.78945 13.5941 8.6978 13.6607 8.59563 13.707C8.49346 13.7533 8.38291 13.7783 8.27076 13.7804C8.15861 13.7825 8.04721 13.7617 7.94337 13.7193C7.83953 13.6768 7.74544 13.6137 7.66685 13.5336L3.6191 9.43186C3.46299 9.27266 3.37555 9.05858 3.37555 8.83562C3.37555 8.61265 3.46299 8.39857 3.6191 8.23936C3.69588 8.16103 3.78751 8.09879 3.88864 8.05631C3.98977 8.01382 4.09835 7.99194 4.20804 7.99194C4.31773 7.99194 4.42631 8.01382 4.52744 8.05631C4.62857 8.09879 4.7202 8.16103 4.79698 8.23936L8.23048 11.719L14.3055 4.49086C14.3125 4.48217 14.32 4.47391 14.328 4.46611Z" fill="white"/>
</g>
</svg>
