<svg width="281" height="68" viewBox="0 0 281 68" fill="none" xmlns="http://www.w3.org/2000/svg">
<path d="M107.613 28.2936C107.094 27.4392 106.377 26.7831 105.462 26.3253C104.577 25.8676 103.524 25.6387 102.304 25.6387C100.045 25.6387 98.2603 26.3711 96.9481 27.8359C95.6664 29.3006 95.0256 31.2688 95.0256 33.7406C95.0256 36.5175 95.7122 38.6383 97.0854 40.1031C98.4891 41.5373 100.518 42.2544 103.173 42.2544C106.316 42.2544 108.559 40.8354 109.902 37.9975H100.885V31.5435H117.638V40.2404C116.936 41.9493 115.898 43.5513 114.525 45.0466C113.182 46.5418 111.473 47.7777 109.398 48.7542C107.323 49.7002 104.958 50.1732 102.304 50.1732C99.0689 50.1732 96.2005 49.4866 93.6982 48.1134C91.2264 46.7097 89.304 44.7719 87.9308 42.3002C86.5881 39.7979 85.9167 36.9447 85.9167 33.7406C85.9167 30.567 86.5881 27.7443 87.9308 25.2726C89.304 22.7703 91.2264 20.8326 93.6982 19.4594C96.1699 18.0556 99.0231 17.3538 102.258 17.3538C106.316 17.3538 109.673 18.3303 112.328 20.2833C114.983 22.2363 116.631 24.9064 117.271 28.2936H107.613Z" fill="white"/>
<path d="M133.605 50.2647C131.042 50.2647 128.738 49.7307 126.693 48.6627C124.679 47.5946 123.092 46.0688 121.933 44.0853C120.773 42.1018 120.193 39.7674 120.193 37.082C120.193 34.4272 120.773 32.108 121.933 30.1245C123.123 28.141 124.725 26.6152 126.739 25.5472C128.783 24.4792 131.087 23.9451 133.651 23.9451C136.214 23.9451 138.503 24.4792 140.517 25.5472C142.561 26.6152 144.163 28.141 145.323 30.1245C146.513 32.108 147.108 34.4272 147.108 37.082C147.108 39.7369 146.513 42.0713 145.323 44.0853C144.163 46.0688 142.561 47.5946 140.517 48.6627C138.472 49.7307 136.168 50.2647 133.605 50.2647ZM133.605 42.4833C134.856 42.4833 135.894 42.0255 136.717 41.1101C137.572 40.1641 137.999 38.8214 137.999 37.082C137.999 35.3427 137.572 34.0152 136.717 33.0998C135.894 32.1843 134.871 31.7266 133.651 31.7266C132.43 31.7266 131.408 32.1843 130.584 33.0998C129.76 34.0152 129.348 35.3427 129.348 37.082C129.348 38.8519 129.745 40.1946 130.538 41.1101C131.332 42.0255 132.354 42.4833 133.605 42.4833Z" fill="white"/>
<path d="M162.11 50.2647C159.974 50.2647 158.051 49.8985 156.342 49.1662C154.634 48.4033 153.291 47.3352 152.314 45.962C151.338 44.5888 150.85 42.9868 150.85 41.1559H156.434C156.556 42.5291 157.09 43.6581 158.036 44.5431C159.012 45.428 160.37 45.8705 162.11 45.8705C163.91 45.8705 165.314 45.4433 166.321 44.5888C167.328 43.7039 167.831 42.5748 167.831 41.2016C167.831 40.1336 167.511 39.2639 166.87 38.5926C166.26 37.9212 165.482 37.4025 164.536 37.0363C163.62 36.6701 162.339 36.2734 160.691 35.8462C158.616 35.2969 156.922 34.7476 155.61 34.1983C154.328 33.6185 153.23 32.7336 152.314 31.5435C151.399 30.3534 150.941 28.7666 150.941 26.7831C150.941 24.9521 151.399 23.3501 152.314 21.9769C153.23 20.6037 154.511 19.5509 156.159 18.8185C157.807 18.0862 159.714 17.72 161.881 17.72C164.963 17.72 167.481 18.4981 169.434 20.0544C171.417 21.5802 172.516 23.6858 172.729 26.3711H166.962C166.87 25.2115 166.321 24.2198 165.314 23.3959C164.307 22.5719 162.98 22.16 161.332 22.16C159.836 22.16 158.616 22.5414 157.67 23.3043C156.724 24.0672 156.251 25.1658 156.251 26.6C156.251 27.5765 156.541 28.3851 157.121 29.026C157.731 29.6363 158.494 30.1245 159.409 30.4907C160.325 30.8569 161.576 31.2536 163.163 31.6808C165.268 32.2606 166.977 32.8404 168.289 33.4202C169.632 34 170.761 34.9002 171.676 36.1208C172.622 37.3109 173.095 38.913 173.095 40.927C173.095 42.5443 172.653 44.0701 171.768 45.5043C170.914 46.9385 169.647 48.0981 167.969 48.9831C166.321 49.8375 164.368 50.2647 162.11 50.2647Z" fill="white"/>
<path d="M185.34 28.9802V42.941C185.34 43.887 185.554 44.5736 185.981 45.0008C186.439 45.3975 187.202 45.5959 188.27 45.5959H191.474V49.9443H187.354C185.005 49.9443 183.204 49.395 181.953 48.2965C180.702 47.1979 180.077 45.4128 180.077 42.941V28.9802H177.101V24.7233H180.077V18.4523H185.34V24.7233H191.474V28.9802H185.34Z" fill="white"/>
<path d="M219.124 24.7233V49.9443H213.906V46.969C213.082 48.0066 211.999 48.8305 210.656 49.4408C209.344 50.0206 207.94 50.3105 206.445 50.3105C204.462 50.3105 202.676 49.8985 201.09 49.0746C199.533 48.2507 198.297 47.0301 197.382 45.4128C196.497 43.7954 196.055 41.8425 196.055 39.5538V24.7233H201.227V38.7756C201.227 41.0338 201.791 42.7732 202.921 43.9938C204.05 45.1839 205.591 45.7789 207.544 45.7789C209.497 45.7789 211.038 45.1839 212.167 43.9938C213.326 42.7732 213.906 41.0338 213.906 38.7756V24.7233H219.124Z" fill="white"/>
<path d="M224.27 37.2194C224.27 34.6866 224.789 32.4437 225.826 30.4907C226.894 28.5377 228.328 27.0272 230.129 25.9592C231.96 24.8606 233.989 24.3113 236.217 24.3113C237.864 24.3113 239.482 24.6775 241.069 25.4099C242.686 26.1117 243.968 27.0577 244.914 28.2478V16.0721H250.177V49.9443H244.914V46.1451C244.059 47.3658 242.869 48.3728 241.343 49.1662C239.848 49.9596 238.124 50.3563 236.171 50.3563C233.974 50.3563 231.96 49.807 230.129 48.7084C228.328 47.5794 226.894 46.0231 225.826 44.0396C224.789 42.0255 224.27 39.7521 224.27 37.2194ZM244.914 37.3109C244.914 35.5715 244.547 34.061 243.815 32.7794C243.113 31.4977 242.182 30.5212 241.023 29.8499C239.863 29.1785 238.612 28.8429 237.269 28.8429C235.927 28.8429 234.676 29.1785 233.516 29.8499C232.356 30.4907 231.41 31.4519 230.678 32.7336C229.976 33.9847 229.625 35.48 229.625 37.2194C229.625 38.9587 229.976 40.4845 230.678 41.7967C231.41 43.1088 232.356 44.1159 233.516 44.8177C234.706 45.4891 235.957 45.8247 237.269 45.8247C238.612 45.8247 239.863 45.4891 241.023 44.8177C242.182 44.1464 243.113 43.1699 243.815 41.8882C244.547 40.5761 244.914 39.0503 244.914 37.3109Z" fill="white"/>
<path d="M279.735 24.7233L264.263 61.7996H258.862L263.989 49.5323L254.056 24.7233H259.869L266.964 43.948L274.334 24.7233H279.735Z" fill="white"/>
<path d="M34 46.3334C35.7267 48.9234 38.0392 51.0509 40.7834 52.5L34 59.2834L27.2167 52.5C29.9609 51.0509 32.3042 48.9234 34 46.3334ZM49.4167 31.5334C47.7812 31.5334 46.2127 32.1831 45.0562 33.3395C43.8997 34.496 43.25 36.0645 43.25 37.7C43.25 39.3355 43.8997 40.9041 45.0562 42.0605C46.2127 43.217 47.7812 43.8667 49.4167 43.8667C51.0522 43.8667 52.6207 43.217 53.7772 42.0605C54.9337 40.9041 55.5834 39.3355 55.5834 37.7C55.5834 36.0645 54.9337 34.496 53.7772 33.3395C52.6207 32.1831 51.0522 31.5334 49.4167 31.5334ZM18.5834 31.5334C16.9479 31.5334 15.3794 32.1831 14.2229 33.3395C13.0664 34.496 12.4167 36.0645 12.4167 37.7C12.4167 39.3355 13.0664 40.9041 14.2229 42.0605C15.3794 43.217 16.9479 43.8667 18.5834 43.8667C20.2189 43.8667 21.7874 43.217 22.9439 42.0605C24.1003 40.9041 24.75 39.3355 24.75 37.7C24.75 36.0645 24.1003 34.496 22.9439 33.3395C21.7874 32.1831 20.2189 31.5334 18.5834 31.5334ZM49.4167 23.825C52.6877 23.825 55.8247 25.1244 58.1377 27.4374C60.4506 29.7503 61.75 32.8874 61.75 36.1584C61.75 39.4294 60.4506 42.5664 58.1377 44.8794C55.8247 47.1923 52.6877 48.4917 49.4167 48.4917C46.1457 48.4917 43.0087 47.1923 40.6957 44.8794C38.3828 42.5664 37.0834 39.4294 37.0834 36.1584C37.0834 32.8874 38.3828 29.7503 40.6957 27.4374C43.0087 25.1244 46.1457 23.825 49.4167 23.825M18.5834 23.825C21.8544 23.825 24.9914 25.1244 27.3044 27.4374C29.6173 29.7503 30.9167 32.8874 30.9167 36.1584C30.9167 39.4294 29.6173 42.5664 27.3044 44.8794C24.9914 47.1923 21.8544 48.4917 18.5834 48.4917C15.3124 48.4917 12.1753 47.1923 9.86239 44.8794C7.54944 42.5664 6.25004 39.4294 6.25004 36.1584C6.25004 32.8874 7.54944 29.7503 9.86239 27.4374C12.1753 25.1244 15.3124 23.825 18.5834 23.825M3.90671 0.083374C9.33337 11.4917 5.41754 20.0017 1.77921 28.45C0.669207 30.9167 0.083374 33.4759 0.083374 36.1584C0.083374 41.0649 2.03248 45.7704 5.5019 49.2398C8.97132 52.7093 13.6769 54.6584 18.5834 54.6584C19.2309 54.6275 19.8784 54.5967 20.5259 54.5042L29.6525 63.6309L34 67.9167L38.3475 63.6309L47.4742 54.5042C48.1217 54.5967 48.7692 54.6275 49.4167 54.6584C54.3232 54.6584 59.0288 52.7093 62.4982 49.2398C65.9676 45.7704 67.9167 41.0649 67.9167 36.1584C67.9167 33.4759 67.3309 30.9167 66.2209 28.45C62.5825 20.0017 58.6667 11.4917 64.0934 0.083374C55.9534 6.43504 44.36 11.4609 34 11.4917C23.64 11.4609 12.0467 6.43504 3.90671 0.083374Z" fill="white"/>
</svg>
