<svg width="213" height="63" viewBox="0 0 213 63" fill="none" xmlns="http://www.w3.org/2000/svg">
<path fill-rule="evenodd" clip-rule="evenodd" d="M33.1763 5.44921C51.581 -13.4697 97.5967 19.6363 33.1763 62.2059C-31.2441 19.6404 14.7717 -13.4697 33.1763 5.44921ZM42.4409 17.283C42.4409 20.0623 40.588 24.4629 37.5771 24.4629C35.261 24.4629 34.1029 21.6836 34.1029 19.3675C34.1029 16.5882 35.9558 12.1876 38.9667 12.1876C41.2828 12.1876 42.4409 14.9669 42.4409 17.283ZM32.2501 19.3675C32.2501 21.6836 31.092 24.4629 28.7759 24.4629C25.5334 24.4629 23.6805 20.0623 23.9121 17.0514C23.9121 14.7353 25.0702 11.956 27.3863 11.956C30.3972 11.956 32.2501 16.3566 32.2501 19.3675ZM40.8196 29.3267C40.8196 26.3158 42.9041 22.1468 45.915 22.1468C47.7679 22.1468 48.9259 24.2313 48.9259 26.3158C48.9259 29.3267 46.8414 33.4957 43.8305 33.4957C41.746 33.4957 40.8196 31.4112 40.8196 29.3267ZM20.6696 22.1468C23.4489 22.1468 25.765 26.3158 25.765 29.3267C25.765 31.4112 24.8386 33.4957 22.7541 33.4957C19.9748 33.4957 17.6587 29.3267 17.6587 26.3158C17.6587 24.2313 18.5851 22.1468 20.6696 22.1468ZM22.2909 41.3704C22.2909 36.275 28.5443 28.8635 33.1765 28.8635C37.8087 28.8635 44.0621 36.275 44.0621 41.3704C44.0621 43.9181 41.9776 44.3813 40.1248 44.3813C38.8206 44.3813 37.6378 43.8957 36.4831 43.4218C35.3822 42.9698 34.307 42.5284 33.1765 42.5284C31.9303 42.5284 30.795 42.9717 29.635 43.4246C28.4234 43.8977 27.1849 44.3813 25.765 44.3813C23.9121 44.3813 22.2909 43.6865 22.2909 41.3704Z" fill="white"/>
<path d="M81.572 45.3994H74.1311L82.5145 20.0011H91.9397L100.323 45.3994H92.8822L87.3263 26.9955H87.1279L81.572 45.3994ZM80.183 35.379H94.1719V40.538H80.183V35.379Z" fill="white"/>
<path d="M102.868 45.3994V26.3507H109.367V29.9719H109.565C109.962 28.7814 110.64 27.8388 111.599 27.1444C112.558 26.4499 113.699 26.1026 115.022 26.1026C116.361 26.1026 117.515 26.4581 118.482 27.1692C119.449 27.8719 120.032 28.8062 120.231 29.9719H120.429C120.751 28.8062 121.438 27.8719 122.488 27.1692C123.538 26.4581 124.77 26.1026 126.183 26.1026C128.01 26.1026 129.49 26.6896 130.623 27.8636C131.764 29.0377 132.334 30.6002 132.334 32.5514V45.3994H125.489V34.2876C125.489 33.4526 125.278 32.7994 124.856 32.3282C124.435 31.8487 123.868 31.6089 123.157 31.6089C122.455 31.6089 121.896 31.8487 121.483 32.3282C121.078 32.7994 120.875 33.4526 120.875 34.2876V45.3994H114.327V34.2876C114.327 33.4526 114.117 32.7994 113.695 32.3282C113.273 31.8487 112.707 31.6089 111.996 31.6089C111.525 31.6089 111.12 31.7164 110.781 31.9313C110.442 32.1463 110.177 32.4563 109.987 32.8614C109.805 33.2583 109.714 33.7337 109.714 34.2876V45.3994H102.868Z" fill="white"/>
<path d="M144.888 45.7466C142.821 45.7466 141.052 45.3374 139.58 44.5189C138.108 43.6921 136.98 42.5429 136.194 41.0712C135.409 39.5913 135.016 37.8758 135.016 35.9246C135.016 33.9734 135.409 32.262 136.194 30.7904C136.98 29.3105 138.108 28.1613 139.58 27.3428C141.052 26.516 142.821 26.1026 144.888 26.1026C146.955 26.1026 148.724 26.516 150.196 27.3428C151.667 28.1613 152.796 29.3105 153.581 30.7904C154.367 32.262 154.759 33.9734 154.759 35.9246C154.759 37.8758 154.367 39.5913 153.581 41.0712C152.796 42.5429 151.667 43.6921 150.196 44.5189C148.724 45.3374 146.955 45.7466 144.888 45.7466ZM144.937 40.6868C145.516 40.6868 146.016 40.4925 146.438 40.1039C146.86 39.7153 147.186 39.1614 147.418 38.4421C147.649 37.7228 147.765 36.8671 147.765 35.875C147.765 34.8746 147.649 34.0189 147.418 33.3079C147.186 32.5886 146.86 32.0347 146.438 31.6461C146.016 31.2575 145.516 31.0632 144.937 31.0632C144.326 31.0632 143.801 31.2575 143.362 31.6461C142.924 32.0347 142.589 32.5886 142.358 33.3079C142.126 34.0189 142.011 34.8746 142.011 35.875C142.011 36.8671 142.126 37.7228 142.358 38.4421C142.589 39.1614 142.924 39.7153 143.362 40.1039C143.801 40.4925 144.326 40.6868 144.937 40.6868Z" fill="white"/>
<path d="M157.438 45.3994V20.0011H168.401C170.286 20.0011 171.935 20.3731 173.349 21.1172C174.763 21.8613 175.863 22.9072 176.648 24.2548C177.433 25.6024 177.826 27.1774 177.826 28.9798C177.826 30.7987 177.421 32.3737 176.611 33.7048C175.809 35.0358 174.68 36.061 173.225 36.7803C171.778 37.4996 170.088 37.8593 168.153 37.8593H161.605V32.5018H166.764C167.574 32.5018 168.265 32.3613 168.835 32.0802C169.414 31.7908 169.856 31.3815 170.162 30.8524C170.476 30.3233 170.633 29.6991 170.633 28.9798C170.633 28.2522 170.476 27.6322 170.162 27.1196C169.856 26.5987 169.414 26.2018 168.835 25.929C168.265 25.6479 167.574 25.5074 166.764 25.5074H164.333V45.3994H157.438Z" fill="white"/>
<path d="M189.174 45.7466C187.14 45.7466 185.387 45.358 183.915 44.5809C182.452 43.7954 181.323 42.671 180.53 41.2077C179.744 39.736 179.352 37.975 179.352 35.9246C179.352 33.9569 179.748 32.2372 180.542 30.7656C181.336 29.294 182.456 28.1489 183.903 27.3304C185.35 26.5119 187.057 26.1026 189.025 26.1026C190.463 26.1026 191.765 26.3259 192.931 26.7723C194.097 27.2188 195.093 27.8678 195.92 28.7193C196.747 29.5627 197.383 30.5878 197.83 31.7949C198.276 33.002 198.499 34.362 198.499 35.875V37.4624H181.485V33.6923H192.2C192.191 33.1467 192.051 32.6672 191.778 32.2538C191.513 31.8321 191.154 31.5056 190.699 31.2741C190.252 31.0343 189.744 30.9144 189.174 30.9144C188.62 30.9144 188.111 31.0343 187.648 31.2741C187.185 31.5056 186.813 31.828 186.532 32.2414C186.259 32.6548 186.115 33.1384 186.098 33.6923V37.76C186.098 38.3718 186.226 38.9175 186.482 39.397C186.739 39.8766 187.107 40.2527 187.586 40.5256C188.066 40.7984 188.644 40.9348 189.322 40.9348C189.794 40.9348 190.224 40.8687 190.612 40.7364C191.009 40.6041 191.348 40.414 191.629 40.1659C191.91 39.9096 192.117 39.6037 192.249 39.2482H198.499C198.285 40.571 197.776 41.7202 196.974 42.6958C196.172 43.6632 195.11 44.4155 193.787 44.9529C192.472 45.482 190.935 45.7466 189.174 45.7466Z" fill="white"/>
<path d="M212.653 26.3507V31.3113H200.102V26.3507H212.653ZM202.533 21.7869H209.379V39.273C209.379 39.5376 209.424 39.7608 209.515 39.9427C209.606 40.1163 209.747 40.2486 209.937 40.3396C210.127 40.4222 210.371 40.4636 210.668 40.4636C210.875 40.4636 211.115 40.4388 211.388 40.3892C211.669 40.3396 211.876 40.2982 212.008 40.2651L213 45.0769C212.694 45.1679 212.256 45.2795 211.685 45.4118C211.123 45.544 210.454 45.6309 209.676 45.6722C208.105 45.7549 206.787 45.5937 205.72 45.1885C204.654 44.7752 203.852 44.1261 203.314 43.2415C202.777 42.3569 202.517 41.249 202.533 39.9179V21.7869Z" fill="white"/>
</svg>
