<svg width="165" height="68" viewBox="0 0 165 68" fill="none" xmlns="http://www.w3.org/2000/svg">
<path d="M9.70396 67.9677C15.0633 67.9677 19.4079 63.6251 19.4079 58.2682C19.4079 52.9113 15.0633 48.5687 9.70396 48.5687C4.34461 48.5687 0 52.9113 0 58.2682C0 63.6251 4.34461 67.9677 9.70396 67.9677Z" fill="white"/>
<path d="M105.417 25.096C104.988 25.096 104.577 25.2663 104.274 25.5695C103.97 25.8727 103.8 26.2838 103.8 26.7126V44.8668C103.8 51.1067 100.986 53.3376 98.0747 53.3376C94.8401 53.3376 92.8023 51.3331 92.8023 45.2547V26.7126C92.8023 26.2838 92.6319 25.8727 92.3286 25.5695C92.0253 25.2663 91.6139 25.096 91.1849 25.096H77.6317C77.2028 25.096 76.7914 25.2663 76.4881 25.5695C76.1848 25.8727 76.0144 26.2838 76.0144 26.7126V48.3424C76.0144 62.0348 83.3732 67.9677 93.1096 67.9677C95.2609 68.0047 97.3964 67.5925 99.3792 66.7574C101.362 65.9223 103.149 64.6827 104.625 63.1179V65.4943C104.625 65.923 104.795 66.3342 105.099 66.6374C105.402 66.9406 105.813 67.1109 106.242 67.1109H118.971C119.4 67.1109 119.811 66.9406 120.114 66.6374C120.418 66.3342 120.588 65.923 120.588 65.4943V26.6964C120.588 26.2677 120.418 25.8565 120.114 25.5533C119.811 25.2502 119.4 25.0798 118.971 25.0798L105.417 25.096Z" fill="white"/>
<path d="M143.942 67.9677C158.061 67.9677 164.967 61.3397 164.967 53.7256C164.967 36.8647 141.645 42.5712 141.645 38.1741C141.645 37.1718 142.826 36.1696 147.128 36.1696C150.617 36.1515 154.065 36.9138 157.22 38.4004C157.43 38.5049 157.66 38.5651 157.894 38.5774C158.128 38.5897 158.362 38.5539 158.582 38.472C158.802 38.3902 159.003 38.2642 159.172 38.1017C159.341 37.9392 159.475 37.7438 159.565 37.5275L162.913 29.1698C163.057 28.7869 163.05 28.3639 162.894 27.9859C162.738 27.608 162.444 27.3032 162.072 27.1329C157.274 25.1453 152.111 24.187 146.918 24.32C133.235 24.32 126.151 30.7864 126.151 38.7076C126.151 55.5685 149.554 49.7973 149.554 54.1136C149.554 55.3422 148.454 56.1181 144.363 56.1181C140.012 56.1174 135.719 55.1221 131.812 53.2083C131.604 53.101 131.375 53.038 131.141 53.0233C130.907 53.0087 130.672 53.0427 130.452 53.1232C130.231 53.2037 130.03 53.3289 129.861 53.4911C129.691 53.6532 129.557 53.8486 129.467 54.0651L126.151 62.5521C126.006 62.8999 125.995 63.2893 126.12 63.6449C126.246 64.0004 126.499 64.2966 126.831 64.4759C132.216 66.8595 138.053 68.0507 143.942 67.9677Z" fill="white"/>
<path fill-rule="evenodd" clip-rule="evenodd" d="M20.5077 30.1398L21.0253 2.56094C21.0253 1.68799 21.6722 0.0714071 24.2599 0.0714071C29.1119 -0.462064 40.4332 1.68799 38.8159 17.0455C49.8622 15.4289 72.7798 18.6621 71.9711 44.5273C71.1624 54.2268 63.8845 68.776 44.4765 67.9677C37.6172 67.3715 31.2488 64.1656 26.6859 59.0119C20.2166 51.4786 20.346 40.6152 20.5401 30.6086L20.5077 30.1398ZM47.0966 48.5688C48.3676 48.5319 49.5996 48.1214 50.6385 47.3887C51.6702 46.648 52.4673 45.6268 52.9351 44.4465C53.3954 43.2626 53.4967 41.9694 53.2263 40.7284C53.0236 39.7995 52.6184 38.9267 52.0398 38.1723C51.4611 37.4178 50.7231 36.8001 49.8783 36.3632C49.0335 35.9264 48.1028 35.6811 47.1523 35.6448C46.2019 35.6086 45.2551 35.7822 44.3795 36.1534C43.2102 36.6485 42.2125 37.4765 41.5107 38.5344C40.809 39.5923 40.4342 40.8332 40.4332 42.1025C40.4459 42.9644 40.6283 43.8154 40.97 44.6069C41.3117 45.3983 41.8061 46.1147 42.4249 46.7152C43.0436 47.3157 43.7747 47.7884 44.5763 48.1065C45.3779 48.4245 46.2343 48.5816 47.0966 48.5688V48.5688Z" fill="white"/>
</svg>
